<svg xmlns="http://www.w3.org/2000/svg" viewBox="0 0 484.78 75.95"><defs><style>.cls-1,.cls-2{font-size:65.39px;}.cls-1,.cls-4{fill:#bc222f;}.cls-1{font-family:Lato-Regular, Lato;}.cls-2,.cls-3{fill:#231f20;}.cls-2{font-family:Georgia-Bold, Georgia;font-weight:700;}</style></defs><g id="Layer_2" data-name="Layer 2"><g id="Layer_1-2" data-name="Layer 1"><text class="cls-1" transform="translate(260.29 56.12)">Madura</text><text class="cls-2" transform="translate(53.4 56.12)">Berita</text><path class="cls-3" d="M11.75,10.84h21.8A1.46,1.46,0,0,1,35,12.3v6.78a0,0,0,0,1,0,0H10.3a0,0,0,0,1,0,0V12.3A1.46,1.46,0,0,1,11.75,10.84Z" transform="translate(45.31 29.92) rotate(180)"/><path class="cls-4" d="M0,52.79V10.84H8.24V41.91l9.84-13.83a1.49,1.49,0,0,1,1.21-.62H26a1.49,1.49,0,0,1,1.21.62l9.84,13.83V10.84H45.3v42A3.33,3.33,0,0,1,42,56.12H38.8a3.38,3.38,0,0,1-2.75-1.41L22.66,35.87h0L9.25,54.71A3.38,3.38,0,0,1,6.5,56.12H3.34A3.33,3.33,0,0,1,0,52.79Z"/></g></g></svg>