<svg xmlns="http://www.w3.org/2000/svg" viewBox="0 0 760 760"><defs><style>.cls-1{fill:#f1f2f2;}.cls-2{fill:#6d6e71;}</style></defs><g id="Layer_2" data-name="Layer 2"><g id="Layer_1-2" data-name="Layer 1"><rect class="cls-1" width="760" height="760"/><path class="cls-2" d="M345.57,316.9h68.88v13.72a9.24,9.24,0,0,1-9.24,9.24h-50.4a9.24,9.24,0,0,1-9.24-9.24Z"/><path class="cls-2" d="M316.88,433.8V316.91h23v86.57l27.42-38.54a4.15,4.15,0,0,1,3.37-1.73h18.74a4.15,4.15,0,0,1,3.37,1.73l27.42,38.54V316.91h23V433.8a9.3,9.3,0,0,1-9.3,9.3H425a9.41,9.41,0,0,1-7.66-4L380,386.65l0,0,0,0-37.32,52.5a9.41,9.41,0,0,1-7.66,4h-8.81A9.3,9.3,0,0,1,316.88,433.8Z"/></g></g></svg>