<svg width="183" height="44" viewBox="0 0 183 44" fill="none" xmlns="http://www.w3.org/2000/svg">
<path d="M56.34 13.175V29.605L58.82 30.535V31H52.93V30.535L55.41 29.605V10.23L53.55 9.765V9.3H57.425C58.4997 9.3 59.347 9.52733 59.967 9.982C60.6077 10.416 61.1553 11.067 61.61 11.935L68.368 24.862L73.545 11.935C73.8963 11.0257 74.3717 10.3643 74.971 9.951C75.5703 9.517 76.49 9.3 77.73 9.3H80.985V9.765L79.125 10.23V30.07L80.985 30.535V31H72.15V30.535L74.01 30.07V13.175L66.725 31.31H65.795L56.34 13.175ZM89.8309 31.465C87.9916 31.465 86.5759 31.0723 85.5839 30.287C84.5919 29.5017 84.0959 28.4993 84.0959 27.28C84.0959 26.474 84.2716 25.6783 84.6229 24.893C84.7676 24.521 84.9536 24.18 85.1809 23.87C86.0282 23.6633 86.9479 23.4773 87.9399 23.312C90.1719 22.94 92.1456 22.7127 93.8609 22.63V21.7C93.8609 19.406 93.5819 17.825 93.0239 16.957C92.4659 16.089 91.6082 15.655 90.4509 15.655C90.0169 15.655 89.6449 15.7067 89.3349 15.81L88.9009 15.965V20.615L88.4979 20.708C88.1672 20.7493 87.8882 20.77 87.6609 20.77C86.9582 20.77 86.3899 20.5633 85.9559 20.15C85.5426 19.716 85.3359 19.1477 85.3359 18.445C85.3359 17.4943 85.8112 16.6883 86.7619 16.027C87.7332 15.3657 89.1696 15.035 91.0709 15.035C92.6829 15.035 94.0676 15.3243 95.2249 15.903C96.4029 16.461 97.2916 17.2463 97.8909 18.259C98.5109 19.251 98.8209 20.398 98.8209 21.7V30.07L100.681 30.535V31H97.8909C96.6509 31 95.6899 30.6177 95.0079 29.853C94.7186 29.543 94.4912 29.1503 94.3259 28.675C94.0366 29.1917 93.6956 29.6567 93.3029 30.07C92.3729 31 91.2156 31.465 89.8309 31.465ZM91.0709 30.38C91.8356 30.38 92.5279 29.9667 93.1479 29.14C93.3752 28.83 93.6129 28.4167 93.8609 27.9V23.405C92.9102 23.405 92.0009 23.4567 91.1329 23.56C90.4922 23.6427 90.0582 23.6943 89.8309 23.715C89.7276 23.9423 89.6242 24.2523 89.5209 24.645C89.3142 25.4303 89.2109 26.2053 89.2109 26.97C89.2109 28.1273 89.3866 28.985 89.7379 29.543C90.0892 30.101 90.5336 30.38 91.0709 30.38ZM109.84 37.665C108.001 37.665 106.503 37.4997 105.345 37.169C104.188 36.8383 103.351 36.4147 102.834 35.898C102.338 35.3813 102.09 34.8337 102.09 34.255C102.09 33.5523 102.297 32.984 102.71 32.55C103.144 32.1367 103.713 31.93 104.415 31.93C104.581 31.93 104.88 31.961 105.314 32.023L105.655 32.085V36.425C105.903 36.5077 106.296 36.611 106.833 36.735C107.784 36.9417 108.683 37.045 109.53 37.045C112.052 37.045 113.891 36.6833 115.048 35.96C116.226 35.2573 116.815 34.379 116.815 33.325C116.815 31.9817 115.575 31.31 113.095 31.31H107.205C105.655 31.31 104.467 30.9897 103.64 30.349C102.814 29.7083 102.4 28.892 102.4 27.9C102.4 26.908 102.886 26.0297 103.857 25.265C104.25 24.9757 104.746 24.7173 105.345 24.49C104.581 24.0147 104.023 23.4567 103.671 22.816C103.341 22.1547 103.175 21.3693 103.175 20.46C103.175 18.9307 103.754 17.701 104.911 16.771C106.069 15.8203 107.763 15.345 109.995 15.345C110.967 15.345 111.855 15.4483 112.661 15.655C113.488 15.841 114.149 16.0993 114.645 16.43C114.811 16.0787 115.028 15.7687 115.296 15.5C115.916 14.88 116.681 14.57 117.59 14.57C118.293 14.57 118.882 14.818 119.357 15.314C119.833 15.7893 120.07 16.4197 120.07 17.205C120.07 17.8043 119.905 18.29 119.574 18.662C119.264 19.034 118.861 19.22 118.365 19.22C118.138 19.22 117.88 19.1993 117.59 19.158L117.28 19.065V15.345C116.743 15.345 116.237 15.6033 115.761 16.12C115.575 16.306 115.41 16.5643 115.265 16.895C116.299 17.8043 116.815 18.9927 116.815 20.46C116.815 21.9893 116.237 23.2293 115.079 24.18C113.922 25.11 112.227 25.575 109.995 25.575C108.507 25.575 107.164 25.3167 105.965 24.8L105.345 25.11C105.139 25.234 104.984 25.358 104.88 25.482C104.777 25.5853 104.725 25.7197 104.725 25.885C104.725 26.2363 104.901 26.505 105.252 26.691C105.624 26.877 106.275 26.97 107.205 26.97H113.095C114.645 26.97 115.854 27.4247 116.722 28.334C117.611 29.2227 118.055 30.473 118.055 32.085C118.055 33.7383 117.363 35.0817 115.978 36.115C114.614 37.1483 112.568 37.665 109.84 37.665ZM109.995 24.955C110.677 24.955 111.204 24.6243 111.576 23.963C111.969 23.3017 112.165 22.134 112.165 20.46C112.165 18.786 111.969 17.6183 111.576 16.957C111.204 16.2957 110.677 15.965 109.995 15.965C109.313 15.965 108.776 16.2957 108.383 16.957C108.011 17.6183 107.825 18.786 107.825 20.46C107.825 22.134 108.011 23.3017 108.383 23.963C108.776 24.6243 109.313 24.955 109.995 24.955ZM138.672 30.225L147.507 16.275H141.927C141.927 17.4117 141.586 18.5587 140.904 19.716C140.635 20.15 140.304 20.553 139.912 20.925H138.982V15.5H153.087V16.275L144.252 30.225H150.142C150.142 29.047 150.472 27.9 151.134 26.784C151.423 26.3087 151.764 25.9057 152.157 25.575H153.087V31H138.672V30.225ZM155.564 30.535L157.424 30.07V16.43L155.564 15.965V15.5H159.594C161.454 15.5 162.384 16.43 162.384 18.29V30.07L164.244 30.535V31H155.564V30.535ZM159.594 13.64C158.974 13.64 158.458 13.4333 158.044 13.02C157.631 12.6067 157.424 12.09 157.424 11.47C157.424 10.85 157.631 10.3333 158.044 9.92C158.458 9.50667 158.974 9.3 159.594 9.3C160.214 9.3 160.731 9.50667 161.144 9.92C161.558 10.3333 161.764 10.85 161.764 11.47C161.764 12.09 161.558 12.6067 161.144 13.02C160.731 13.4333 160.214 13.64 159.594 13.64ZM165.169 30.535L167.649 29.605L171.493 24.676L166.254 16.43L164.704 15.965V15.5H168.889C169.881 15.5 170.687 15.7273 171.307 16.182C171.927 16.616 172.516 17.267 173.074 18.135L174.655 20.646L177.569 16.895L175.244 15.965V15.5H181.134V15.965L178.654 16.895L175.12 21.39L180.669 30.07L182.219 30.535V31H178.034C177.042 31 176.236 30.783 175.616 30.349C174.996 29.915 174.407 29.2537 173.849 28.365L171.989 25.451L168.734 29.605L171.059 30.535V31H165.169V30.535Z" fill="white"/>
<path d="M129.695 31.465C127.05 31.465 124.993 30.7417 123.526 29.295C122.059 27.8277 121.325 25.8127 121.325 23.25C121.325 21.576 121.645 20.119 122.286 18.879C122.927 17.639 123.815 16.6883 124.952 16.027C126.109 15.3657 127.432 15.035 128.92 15.035C130.408 15.035 131.71 15.314 132.826 15.872C133.963 16.43 134.831 17.1843 135.43 18.135C136.05 19.065 136.36 20.0983 136.36 21.235C136.36 21.7517 136.308 22.196 136.205 22.568L136.05 23.095C135.161 23.281 134.2 23.436 133.167 23.56C130.997 23.87 128.806 24.025 126.595 24.025C126.595 26.4223 126.926 28.1377 127.587 29.171C128.248 30.1837 129.158 30.69 130.315 30.69C131.121 30.69 131.865 30.504 132.547 30.132C133.25 29.7393 133.797 29.233 134.19 28.613C134.603 27.9723 134.81 27.3213 134.81 26.66H135.585C135.585 27.4867 135.337 28.272 134.841 29.016C134.345 29.76 133.653 30.3593 132.764 30.814C131.875 31.248 130.852 31.465 129.695 31.465ZM126.595 23.25C127.918 23.25 128.992 23.1983 129.819 23.095C130.17 23.0743 130.542 23.0227 130.935 22.94C130.956 22.8367 131.007 22.6093 131.09 22.258C131.193 21.7413 131.245 21.1937 131.245 20.615C131.245 18.8997 131.018 17.6493 130.563 16.864C130.108 16.058 129.561 15.655 128.92 15.655C127.37 15.655 126.595 18.1867 126.595 23.25Z" fill="#F10505"/>
<path d="M7.59969 22.584C7.59969 18.9661 8.94953 15.5642 11.4015 13.0053C13.8525 10.4473 17.1122 9.03759 20.5798 9.03759H33.5122L18.656 0.0879804C18.4611 -0.0293268 18.2214 -0.0293268 18.0264 0.0879804L0.315327 10.7598C0.120362 10.8771 0 11.0941 0 11.3287V32.6724C0 32.907 0.120362 33.124 0.315327 33.2413L7.59969 37.6304V22.584Z" fill="white" fill-opacity="0.49"/>
<path d="M20.5786 14.2935C16.1979 14.2935 12.6348 18.013 12.6348 22.5839V23.2846H26.2297V28.5395H12.6348V40.6637L18.0262 43.912C18.2211 44.0293 18.4609 44.0293 18.6558 43.912L36.3669 33.2401C36.5619 33.1228 36.6822 32.9059 36.6822 32.6712V16.2254L42 14.2935H20.5786Z" fill="#F10505"/>
</svg>
