<svg width="175" height="45" viewBox="0 0 175 45" fill="none" xmlns="http://www.w3.org/2000/svg">
<path d="M59.874 21.933L65.795 30.985L71.747 21.933L73.049 33H78.567L75.064 10.215L65.795 23.452L56.557 10.215L53.054 33H58.572L59.874 21.933ZM85.0654 28.536C85.0654 28.1847 85.148 27.8953 85.3134 27.668C85.4787 27.42 85.7267 27.234 86.0574 27.11C86.388 26.986 86.8324 26.924 87.3904 26.924C88.1137 26.924 88.7957 27.0273 89.4364 27.234C90.0977 27.42 90.6764 27.699 91.1724 28.071V25.994C90.9244 25.7253 90.5524 25.467 90.0564 25.219C89.5604 24.971 88.961 24.7643 88.2584 24.599C87.5764 24.4337 86.8014 24.351 85.9334 24.351C84.156 24.351 82.7817 24.754 81.8104 25.56C80.839 26.3453 80.3534 27.42 80.3534 28.784C80.3534 29.7553 80.5807 30.582 81.0354 31.264C81.5107 31.946 82.1307 32.4627 82.8954 32.814C83.6807 33.1447 84.528 33.31 85.4374 33.31C86.3467 33.31 87.194 33.155 87.9794 32.845C88.7647 32.5143 89.4054 32.039 89.9014 31.419C90.3974 30.7783 90.6454 30.0033 90.6454 29.094L90.1494 27.234C90.1494 27.8953 90.0047 28.4533 89.7154 28.908C89.426 29.3627 89.054 29.7037 88.5994 29.931C88.1447 30.1583 87.6487 30.272 87.1114 30.272C86.7394 30.272 86.3984 30.21 86.0884 30.086C85.7784 29.9413 85.5304 29.745 85.3444 29.497C85.1584 29.2283 85.0654 28.908 85.0654 28.536ZM82.9884 23.111C83.195 22.987 83.5257 22.832 83.9804 22.646C84.435 22.4393 84.962 22.2637 85.5614 22.119C86.1814 21.9743 86.8117 21.902 87.4524 21.902C87.8864 21.902 88.2687 21.9433 88.5994 22.026C88.9507 22.1087 89.24 22.243 89.4674 22.429C89.6947 22.615 89.86 22.8423 89.9634 23.111C90.0874 23.359 90.1494 23.6587 90.1494 24.01V33H94.6444V22.956C94.6444 21.964 94.355 21.127 93.7764 20.445C93.1977 19.763 92.4124 19.2463 91.4204 18.895C90.4284 18.523 89.302 18.337 88.0414 18.337C86.698 18.337 85.458 18.5127 84.3214 18.864C83.1847 19.2153 82.2134 19.5873 81.4074 19.98L82.9884 23.111ZM97.6223 34.023C97.7256 35.2837 98.0666 36.3893 98.6453 37.34C99.224 38.3113 100.082 39.0657 101.218 39.603C102.376 40.1403 103.833 40.409 105.589 40.409C107.057 40.409 108.379 40.1403 109.557 39.603C110.735 39.0863 111.676 38.2597 112.378 37.123C113.102 35.9863 113.463 34.5087 113.463 32.69V18.74H108.968V32.69C108.968 33.558 108.803 34.2813 108.472 34.86C108.162 35.4593 107.739 35.9037 107.201 36.193C106.664 36.503 106.065 36.658 105.403 36.658C104.804 36.658 104.267 36.5547 103.791 36.348C103.316 36.162 102.934 35.8727 102.644 35.48C102.376 35.0873 102.21 34.6017 102.148 34.023H97.6223ZM97.3123 25.684C97.3123 27.2753 97.6326 28.6083 98.2733 29.683C98.9346 30.7577 99.782 31.574 100.815 32.132C101.849 32.6693 102.944 32.938 104.101 32.938C105.3 32.938 106.354 32.659 107.263 32.101C108.193 31.5223 108.927 30.6957 109.464 29.621C110.002 28.5257 110.27 27.2133 110.27 25.684C110.27 24.134 110.002 22.8217 109.464 21.747C108.927 20.6723 108.193 19.856 107.263 19.298C106.354 18.7193 105.3 18.43 104.101 18.43C102.944 18.43 101.849 18.6987 100.815 19.236C99.782 19.7733 98.9346 20.5793 98.2733 21.654C97.6326 22.7287 97.3123 24.072 97.3123 25.684ZM102.241 25.684C102.241 24.94 102.396 24.3097 102.706 23.793C103.016 23.2763 103.43 22.8837 103.946 22.615C104.463 22.3463 105.031 22.212 105.651 22.212C106.044 22.212 106.437 22.2843 106.829 22.429C107.222 22.5737 107.573 22.7907 107.883 23.08C108.214 23.3693 108.472 23.731 108.658 24.165C108.865 24.599 108.968 25.1053 108.968 25.684C108.968 26.4487 108.803 27.0893 108.472 27.606C108.142 28.1227 107.718 28.5153 107.201 28.784C106.705 29.032 106.189 29.156 105.651 29.156C105.031 29.156 104.463 29.0217 103.946 28.753C103.43 28.4843 103.016 28.0917 102.706 27.575C102.396 27.0377 102.241 26.4073 102.241 25.684ZM140.948 22.987L133.477 33H147.737V28.753H141.599L148.729 18.74H134.779V22.987H140.948ZM150.758 13.377C150.758 14.121 151.027 14.7307 151.564 15.206C152.101 15.6813 152.742 15.919 153.486 15.919C154.251 15.919 154.891 15.6813 155.408 15.206C155.945 14.7307 156.214 14.121 156.214 13.377C156.214 12.633 155.945 12.0337 155.408 11.579C154.891 11.1037 154.251 10.866 153.486 10.866C152.742 10.866 152.101 11.1037 151.564 11.579C151.027 12.0337 150.758 12.633 150.758 13.377ZM151.223 18.74V33H155.749V18.74H151.223ZM168.749 18.74L166.083 22.491L163.479 18.74H158.085L163.634 25.684L157.775 33H163.169L166.083 28.846L169.059 33H174.267L168.501 25.684L173.957 18.74H168.749Z" fill="white"/>
<path d="M124.324 33.31C126.143 33.31 127.683 32.9587 128.943 32.256C130.225 31.5533 131.237 30.4993 131.981 29.094L127.796 28.071C127.445 28.691 126.97 29.156 126.37 29.466C125.792 29.776 125.089 29.931 124.262 29.931C123.539 29.931 122.929 29.776 122.433 29.466C121.937 29.1353 121.565 28.66 121.317 28.04C121.069 27.42 120.945 26.676 120.945 25.808C120.966 24.8573 121.09 24.072 121.317 23.452C121.565 22.8113 121.927 22.336 122.402 22.026C122.878 21.716 123.467 21.561 124.169 21.561C124.727 21.561 125.213 21.685 125.626 21.933C126.04 22.181 126.36 22.5323 126.587 22.987C126.815 23.4417 126.928 23.979 126.928 24.599C126.928 24.7437 126.887 24.9297 126.804 25.157C126.742 25.3637 126.66 25.5393 126.556 25.684L127.672 24.258H118.868V26.862H131.888C131.93 26.7173 131.95 26.5417 131.95 26.335C131.95 26.1077 131.95 25.8803 131.95 25.653C131.95 24.1237 131.651 22.8217 131.051 21.747C130.452 20.6723 129.584 19.856 128.447 19.298C127.311 18.7193 125.916 18.43 124.262 18.43C122.609 18.43 121.173 18.7297 119.953 19.329C118.755 19.9283 117.835 20.786 117.194 21.902C116.554 23.018 116.233 24.3407 116.233 25.87C116.233 27.3787 116.564 28.691 117.225 29.807C117.887 30.923 118.817 31.791 120.015 32.411C121.235 33.0103 122.671 33.31 124.324 33.31Z" fill="#2962FF"/>
<path d="M7.59969 23.584C7.59969 19.9661 8.94953 16.5642 11.4015 14.0053C13.8525 11.4473 17.1122 10.0376 20.5798 10.0376H33.5122L18.656 1.08798C18.4611 0.970673 18.2214 0.970673 18.0264 1.08798L0.315327 11.7598C0.120362 11.8771 0 12.0941 0 12.3287V33.6724C0 33.907 0.120362 34.124 0.315327 34.2413L7.59969 38.6304V23.584Z" fill="white" fill-opacity="0.49"/>
<path d="M20.5786 15.2935C16.1979 15.2935 12.6348 19.013 12.6348 23.5839V24.2846H26.2297V29.5395H12.6348V41.6637L18.0262 44.912C18.2211 45.0293 18.4609 45.0293 18.6558 44.912L36.3669 34.2401C36.5619 34.1228 36.6822 33.9059 36.6822 33.6712V17.2254L42 15.2935H20.5786Z" fill="#2962FF"/>
</svg>
