<svg width="152" height="38" viewBox="0 0 152 38" fill="none" xmlns="http://www.w3.org/2000/svg">
<path d="M52.52 8.80469H55.8687L60.7993 22.8979L65.73 8.80469H69.0786L62.144 28H59.4546L52.52 8.80469ZM50.7139 8.80469H54.0493L54.6558 22.542V28H50.7139V8.80469ZM67.5493 8.80469H70.8979V28H66.9429V22.542L67.5493 8.80469ZM81.8271 24.7832V18.4287C81.8271 17.9717 81.7524 17.5806 81.603 17.2554C81.4536 16.9214 81.2207 16.6621 80.9043 16.4775C80.5967 16.293 80.1968 16.2007 79.7046 16.2007C79.2827 16.2007 78.918 16.2754 78.6104 16.4248C78.3027 16.5654 78.0654 16.772 77.8984 17.0444C77.7314 17.3081 77.6479 17.6201 77.6479 17.9805H73.8511C73.8511 17.374 73.9917 16.7983 74.2729 16.2534C74.5542 15.7085 74.9629 15.2295 75.499 14.8164C76.0352 14.3945 76.6724 14.0649 77.4106 13.8276C78.1577 13.5903 78.9927 13.4717 79.9155 13.4717C81.0229 13.4717 82.0073 13.6562 82.8687 14.0254C83.73 14.3945 84.4067 14.9482 84.8989 15.6865C85.3999 16.4248 85.6504 17.3477 85.6504 18.4551V24.5591C85.6504 25.3413 85.6987 25.9829 85.7954 26.4839C85.8921 26.9761 86.0327 27.4067 86.2173 27.7759V28H82.3809C82.1963 27.6133 82.0557 27.1299 81.959 26.5498C81.8711 25.9609 81.8271 25.3721 81.8271 24.7832ZM82.3281 19.312L82.3545 21.4609H80.2319C79.731 21.4609 79.2959 21.5181 78.9268 21.6323C78.5576 21.7466 78.2544 21.9092 78.0171 22.1201C77.7798 22.3223 77.604 22.5596 77.4897 22.832C77.3843 23.1045 77.3315 23.4033 77.3315 23.7285C77.3315 24.0537 77.4062 24.3481 77.5557 24.6118C77.7051 24.8667 77.9204 25.0688 78.2017 25.2183C78.4829 25.3589 78.8125 25.4292 79.1904 25.4292C79.7617 25.4292 80.2583 25.3149 80.6802 25.0864C81.1021 24.8579 81.4272 24.5767 81.6558 24.2427C81.8931 23.9087 82.0161 23.5923 82.0249 23.2935L83.0269 24.9019C82.8862 25.2622 82.6929 25.6357 82.4468 26.0225C82.2095 26.4092 81.9062 26.7739 81.5371 27.1167C81.168 27.4507 80.7241 27.7275 80.2056 27.9473C79.687 28.1582 79.0718 28.2637 78.3599 28.2637C77.4546 28.2637 76.6328 28.0835 75.8945 27.7231C75.165 27.354 74.585 26.8486 74.1543 26.207C73.7324 25.5566 73.5215 24.8184 73.5215 23.9922C73.5215 23.2451 73.6621 22.5815 73.9434 22.0015C74.2246 21.4214 74.6377 20.9336 75.1826 20.5381C75.7363 20.1338 76.4263 19.8306 77.2524 19.6284C78.0786 19.4175 79.0366 19.312 80.1265 19.312H82.3281ZM97.6079 13.7354H101.049V27.5254C101.049 28.8262 100.759 29.9292 100.179 30.8345C99.6074 31.7485 98.8076 32.4385 97.7793 32.9043C96.751 33.3789 95.5557 33.6162 94.1934 33.6162C93.5957 33.6162 92.9629 33.5371 92.2949 33.3789C91.6357 33.2207 91.0029 32.9746 90.3965 32.6406C89.7988 32.3066 89.2979 31.8848 88.8936 31.375L90.5679 29.1338C91.0073 29.6436 91.5171 30.0391 92.0972 30.3203C92.6772 30.6104 93.3188 30.7554 94.022 30.7554C94.7075 30.7554 95.2876 30.6279 95.7622 30.373C96.2368 30.127 96.6016 29.7622 96.8564 29.2788C97.1113 28.8042 97.2388 28.2285 97.2388 27.5518V17.0312L97.6079 13.7354ZM88.0103 21.0391V20.7622C88.0103 19.6724 88.1421 18.6836 88.4058 17.7959C88.6782 16.8994 89.0605 16.1304 89.5527 15.4888C90.0537 14.8472 90.6602 14.3506 91.3721 13.999C92.084 13.6475 92.8882 13.4717 93.7847 13.4717C94.7339 13.4717 95.5293 13.6475 96.1709 13.999C96.8125 14.3506 97.3398 14.8516 97.7529 15.502C98.166 16.1436 98.4868 16.9038 98.7153 17.7827C98.9526 18.6528 99.1372 19.6064 99.269 20.6436V21.25C99.1372 22.2432 98.9395 23.166 98.6758 24.0186C98.4121 24.8711 98.0649 25.6182 97.6343 26.2598C97.2036 26.8926 96.6675 27.3848 96.0259 27.7363C95.3931 28.0879 94.6372 28.2637 93.7583 28.2637C92.8794 28.2637 92.084 28.0835 91.3721 27.7231C90.6689 27.3628 90.0669 26.8574 89.5659 26.207C89.0649 25.5566 88.6782 24.792 88.4058 23.9131C88.1421 23.0342 88.0103 22.0762 88.0103 21.0391ZM91.8071 20.7622V21.0391C91.8071 21.6279 91.8643 22.1772 91.9785 22.687C92.0928 23.1968 92.2686 23.6494 92.5059 24.0449C92.752 24.4316 93.0552 24.7349 93.4155 24.9546C93.7847 25.1655 94.2197 25.271 94.7207 25.271C95.415 25.271 95.9819 25.126 96.4214 24.8359C96.8608 24.5371 97.1904 24.1284 97.4102 23.6099C97.6299 23.0913 97.7573 22.4937 97.7925 21.8169V20.0898C97.7749 19.5361 97.7002 19.0396 97.5684 18.6001C97.4365 18.1519 97.252 17.7695 97.0146 17.4531C96.7773 17.1367 96.4697 16.8906 96.0918 16.7148C95.7139 16.5391 95.2656 16.4512 94.7471 16.4512C94.2461 16.4512 93.811 16.5654 93.4419 16.7939C93.0815 17.0137 92.7783 17.3169 92.5322 17.7036C92.2949 18.0903 92.1147 18.5474 91.9917 19.0747C91.8687 19.5933 91.8071 20.1558 91.8071 20.7622ZM129.934 25.0337V28H119.097V25.0337H129.934ZM129.723 15.9238L120.626 28H118.082V25.7456L127.139 13.7354H129.723V15.9238ZM128.378 13.7354V16.7148H118.293V13.7354H128.378ZM136.328 13.7354V28H132.518V13.7354H136.328ZM132.281 10.0176C132.281 9.46387 132.474 9.00684 132.861 8.64648C133.248 8.28613 133.766 8.10596 134.417 8.10596C135.058 8.10596 135.572 8.28613 135.959 8.64648C136.354 9.00684 136.552 9.46387 136.552 10.0176C136.552 10.5713 136.354 11.0283 135.959 11.3887C135.572 11.749 135.058 11.9292 134.417 11.9292C133.766 11.9292 133.248 11.749 132.861 11.3887C132.474 11.0283 132.281 10.5713 132.281 10.0176ZM142.524 13.7354L144.884 18.0728L147.31 13.7354H151.357L147.323 20.7095L151.542 28H147.481L144.911 23.4121L142.34 28H138.279L142.498 20.7095L138.464 13.7354H142.524Z" fill="white"/>
<path d="M110.567 28.2637C109.46 28.2637 108.467 28.0879 107.588 27.7363C106.709 27.376 105.962 26.8794 105.347 26.2466C104.74 25.6138 104.274 24.8799 103.949 24.0449C103.624 23.2012 103.461 22.3047 103.461 21.3555V20.8281C103.461 19.7471 103.615 18.7583 103.923 17.8618C104.23 16.9653 104.67 16.1875 105.241 15.5283C105.821 14.8691 106.524 14.3638 107.351 14.0122C108.177 13.6519 109.108 13.4717 110.146 13.4717C111.156 13.4717 112.053 13.6387 112.835 13.9727C113.617 14.3066 114.272 14.7812 114.799 15.3965C115.335 16.0117 115.74 16.75 116.012 17.6113C116.285 18.4639 116.421 19.4131 116.421 20.459V22.041H105.083V19.5098H112.69V19.2197C112.69 18.6924 112.593 18.2222 112.4 17.8091C112.215 17.3872 111.934 17.0532 111.556 16.8071C111.178 16.561 110.695 16.438 110.106 16.438C109.605 16.438 109.174 16.5479 108.814 16.7676C108.454 16.9873 108.159 17.2949 107.931 17.6904C107.711 18.0859 107.544 18.5518 107.43 19.0879C107.324 19.6152 107.271 20.1953 107.271 20.8281V21.3555C107.271 21.9268 107.351 22.4541 107.509 22.9375C107.676 23.4209 107.909 23.8384 108.208 24.1899C108.515 24.5415 108.884 24.814 109.315 25.0073C109.754 25.2007 110.251 25.2974 110.805 25.2974C111.49 25.2974 112.127 25.1655 112.716 24.9019C113.314 24.6294 113.828 24.2207 114.259 23.6758L116.104 25.6797C115.806 26.1104 115.397 26.5234 114.878 26.9189C114.369 27.3145 113.753 27.6396 113.033 27.8945C112.312 28.1406 111.49 28.2637 110.567 28.2637Z" fill="#2962FF"/>
<path d="M6.69497 19.5043C6.69497 16.3798 7.88411 13.4418 10.0442 11.2318C12.2034 9.02271 15.0751 7.80519 18.1299 7.80519H29.5227L16.4351 0.0759831C16.2633 -0.0253277 16.0521 -0.0253277 15.8804 0.0759831L0.277789 9.29257C0.106033 9.39388 0 9.58126 0 9.78389V28.2171C0 28.4197 0.106033 28.6071 0.277789 28.7084L6.69497 32.499V19.5043Z" fill="white"/>
<path d="M18.1288 12.3444C14.2695 12.3444 11.1306 15.5567 11.1306 19.5043V20.1094H23.1071V24.6478H11.1306V35.1187L15.8802 37.924C16.0519 38.0253 16.2631 38.0253 16.4349 37.924L32.0375 28.7074C32.2092 28.6061 32.3153 28.4187 32.3153 28.2161V14.0129L37 12.3444H18.1288Z" fill="#2962FF"/>
</svg>
