<svg width="162" height="38" viewBox="0 0 162 38" fill="none" xmlns="http://www.w3.org/2000/svg">
<path d="M51.78 10.475V24.785L53.94 25.595V26H48.81V25.595L50.97 24.785V7.91L49.35 7.505V7.1H52.725C53.661 7.1 54.399 7.298 54.939 7.694C55.497 8.072 55.974 8.639 56.37 9.395L62.256 20.654L66.765 9.395C67.071 8.603 67.485 8.027 68.007 7.667C68.529 7.289 69.33 7.1 70.41 7.1H73.245V7.505L71.625 7.91V25.19L73.245 25.595V26H65.55V25.595L67.17 25.19V10.475L60.825 26.27H60.015L51.78 10.475ZM80.9495 26.405C79.3475 26.405 78.1145 26.063 77.2505 25.379C76.3865 24.695 75.9545 23.822 75.9545 22.76C75.9545 22.058 76.1075 21.365 76.4135 20.681C76.5395 20.357 76.7015 20.06 76.8995 19.79C77.6375 19.61 78.4385 19.448 79.3025 19.304C81.2465 18.98 82.9655 18.782 84.4595 18.71V17.9C84.4595 15.902 84.2165 14.525 83.7305 13.769C83.2445 13.013 82.4975 12.635 81.4895 12.635C81.1115 12.635 80.7875 12.68 80.5175 12.77L80.1395 12.905V16.955L79.7885 17.036C79.5005 17.072 79.2575 17.09 79.0595 17.09C78.4475 17.09 77.9525 16.91 77.5745 16.55C77.2145 16.172 77.0345 15.677 77.0345 15.065C77.0345 14.237 77.4485 13.535 78.2765 12.959C79.1225 12.383 80.3735 12.095 82.0295 12.095C83.4335 12.095 84.6395 12.347 85.6475 12.851C86.6735 13.337 87.4475 14.021 87.9695 14.903C88.5095 15.767 88.7795 16.766 88.7795 17.9V25.19L90.3995 25.595V26H87.9695C86.8895 26 86.0525 25.667 85.4585 25.001C85.2065 24.731 85.0085 24.389 84.8645 23.975C84.6125 24.425 84.3155 24.83 83.9735 25.19C83.1635 26 82.1555 26.405 80.9495 26.405ZM82.0295 25.46C82.6955 25.46 83.2985 25.1 83.8385 24.38C84.0365 24.11 84.2435 23.75 84.4595 23.3V19.385C83.6315 19.385 82.8395 19.43 82.0835 19.52C81.5255 19.592 81.1475 19.637 80.9495 19.655C80.8595 19.853 80.7695 20.123 80.6795 20.465C80.4995 21.149 80.4095 21.824 80.4095 22.49C80.4095 23.498 80.5625 24.245 80.8685 24.731C81.1745 25.217 81.5615 25.46 82.0295 25.46ZM98.3771 31.805C96.7751 31.805 95.4701 31.661 94.4621 31.373C93.4541 31.085 92.7251 30.716 92.2751 30.266C91.8431 29.816 91.6271 29.339 91.6271 28.835C91.6271 28.223 91.8071 27.728 92.1671 27.35C92.5451 26.99 93.0401 26.81 93.6521 26.81C93.7961 26.81 94.0571 26.837 94.4351 26.891L94.7321 26.945V30.725C94.9481 30.797 95.2901 30.887 95.7581 30.995C96.5861 31.175 97.3691 31.265 98.1071 31.265C100.303 31.265 101.905 30.95 102.913 30.32C103.939 29.708 104.452 28.943 104.452 28.025C104.452 26.855 103.372 26.27 101.212 26.27H96.0821C94.7321 26.27 93.6971 25.991 92.9771 25.433C92.2571 24.875 91.8971 24.164 91.8971 23.3C91.8971 22.436 92.3201 21.671 93.1661 21.005C93.5081 20.753 93.9401 20.528 94.4621 20.33C93.7961 19.916 93.3101 19.43 93.0041 18.872C92.7161 18.296 92.5721 17.612 92.5721 16.82C92.5721 15.488 93.0761 14.417 94.0841 13.607C95.0921 12.779 96.5681 12.365 98.5121 12.365C99.3581 12.365 100.132 12.455 100.834 12.635C101.554 12.797 102.13 13.022 102.562 13.31C102.706 13.004 102.895 12.734 103.129 12.5C103.669 11.96 104.335 11.69 105.127 11.69C105.739 11.69 106.252 11.906 106.666 12.338C107.08 12.752 107.287 13.301 107.287 13.985C107.287 14.507 107.143 14.93 106.855 15.254C106.585 15.578 106.234 15.74 105.802 15.74C105.604 15.74 105.379 15.722 105.127 15.686L104.857 15.605V12.365C104.389 12.365 103.948 12.59 103.534 13.04C103.372 13.202 103.228 13.427 103.102 13.715C104.002 14.507 104.452 15.542 104.452 16.82C104.452 18.152 103.948 19.232 102.94 20.06C101.932 20.87 100.456 21.275 98.5121 21.275C97.2161 21.275 96.0461 21.05 95.0021 20.6L94.4621 20.87C94.2821 20.978 94.1471 21.086 94.0571 21.194C93.9671 21.284 93.9221 21.401 93.9221 21.545C93.9221 21.851 94.0751 22.085 94.3811 22.247C94.7051 22.409 95.2721 22.49 96.0821 22.49H101.212C102.562 22.49 103.615 22.886 104.371 23.678C105.145 24.452 105.532 25.541 105.532 26.945C105.532 28.385 104.929 29.555 103.723 30.455C102.535 31.355 100.753 31.805 98.3771 31.805ZM98.5121 20.735C99.1061 20.735 99.5651 20.447 99.8891 19.871C100.231 19.295 100.402 18.278 100.402 16.82C100.402 15.362 100.231 14.345 99.8891 13.769C99.5651 13.193 99.1061 12.905 98.5121 12.905C97.9181 12.905 97.4501 13.193 97.1081 13.769C96.7841 14.345 96.6221 15.362 96.6221 16.82C96.6221 18.278 96.7841 19.295 97.1081 19.871C97.4501 20.447 97.9181 20.735 98.5121 20.735ZM123.488 25.325L131.183 13.175H126.323C126.323 14.165 126.026 15.164 125.432 16.172C125.198 16.55 124.91 16.901 124.568 17.225H123.758V12.5H136.043V13.175L128.348 25.325H133.478C133.478 24.299 133.766 23.3 134.342 22.328C134.594 21.914 134.891 21.563 135.233 21.275H136.043V26H123.488V25.325ZM138.201 25.595L139.821 25.19V13.31L138.201 12.905V12.5H141.711C143.331 12.5 144.141 13.31 144.141 14.93V25.19L145.761 25.595V26H138.201V25.595ZM141.711 10.88C141.171 10.88 140.721 10.7 140.361 10.34C140.001 9.98 139.821 9.53 139.821 8.99C139.821 8.45 140.001 8 140.361 7.64C140.721 7.28 141.171 7.1 141.711 7.1C142.251 7.1 142.701 7.28 143.061 7.64C143.421 8 143.601 8.45 143.601 8.99C143.601 9.53 143.421 9.98 143.061 10.34C142.701 10.7 142.251 10.88 141.711 10.88ZM146.567 25.595L148.727 24.785L152.075 20.492L147.512 13.31L146.162 12.905V12.5H149.807C150.671 12.5 151.373 12.698 151.913 13.094C152.453 13.472 152.966 14.039 153.452 14.795L154.829 16.982L157.367 13.715L155.342 12.905V12.5H160.472V12.905L158.312 13.715L155.234 17.63L160.067 25.19L161.417 25.595V26H157.772C156.908 26 156.206 25.811 155.666 25.433C155.126 25.055 154.613 24.479 154.127 23.705L152.507 21.167L149.672 24.785L151.697 25.595V26H146.567V25.595Z" fill="white"/>
<path d="M115.67 26.405C113.366 26.405 111.575 25.775 110.297 24.515C109.019 23.237 108.38 21.482 108.38 19.25C108.38 17.792 108.659 16.523 109.217 15.443C109.775 14.363 110.549 13.535 111.539 12.959C112.547 12.383 113.699 12.095 114.995 12.095C116.291 12.095 117.425 12.338 118.397 12.824C119.387 13.31 120.143 13.967 120.665 14.795C121.205 15.605 121.475 16.505 121.475 17.495C121.475 17.945 121.43 18.332 121.34 18.656L121.205 19.115C120.431 19.277 119.594 19.412 118.694 19.52C116.804 19.79 114.896 19.925 112.97 19.925C112.97 22.013 113.258 23.507 113.834 24.407C114.41 25.289 115.202 25.73 116.21 25.73C116.912 25.73 117.56 25.568 118.154 25.244C118.766 24.902 119.243 24.461 119.585 23.921C119.945 23.363 120.125 22.796 120.125 22.22H120.8C120.8 22.94 120.584 23.624 120.152 24.272C119.72 24.92 119.117 25.442 118.343 25.838C117.569 26.216 116.678 26.405 115.67 26.405ZM112.97 19.25C114.122 19.25 115.058 19.205 115.778 19.115C116.084 19.097 116.408 19.052 116.75 18.98C116.768 18.89 116.813 18.692 116.885 18.386C116.975 17.936 117.02 17.459 117.02 16.955C117.02 15.461 116.822 14.372 116.426 13.688C116.03 12.986 115.553 12.635 114.995 12.635C113.645 12.635 112.97 14.84 112.97 19.25Z" fill="#F10505"/>
<path d="M6.69497 19.5043C6.69497 16.3798 7.88411 13.4418 10.0442 11.2318C12.2034 9.02271 15.0751 7.80519 18.1299 7.80519H29.5227L16.4351 0.0759831C16.2633 -0.0253277 16.0521 -0.0253277 15.8804 0.0759831L0.277789 9.29257C0.106033 9.39388 0 9.58126 0 9.78389V28.2171C0 28.4197 0.106033 28.6071 0.277789 28.7084L6.69497 32.499V19.5043Z" fill="white"/>
<path d="M18.129 12.3442C14.2698 12.3442 11.1309 15.5566 11.1309 19.5041V20.1093H23.1073V24.6477H11.1309V35.1185L15.8804 37.9239C16.0522 38.0252 16.2634 38.0252 16.4351 37.9239L32.0377 28.7073C32.2095 28.606 32.3155 28.4186 32.3155 28.216V14.0127L37.0002 12.3442H18.129Z" fill="#F10505"/>
</svg>
